<svg width="216" height="171" viewBox="0 0 216 171" fill="none" xmlns="http://www.w3.org/2000/svg">
<g id="VPLogo">
<g id="V">
<path id="V_2" d="M34.6279 58.3359L86.1934 105.053L86.8933 104.646L71.8348 36.7011L89.5173 26.4192L107.379 116.987L86.8228 128.94L16.9085 68.6392L34.6279 58.3359Z" fill="#5E12FF"/>
<path id="V_3" d="M49.6279 58.3359L101.193 105.053L101.893 104.646L86.8348 36.7011L104.517 26.4192L122.379 116.987L101.823 128.94L31.9085 68.6392L49.6279 58.3359Z" fill="#5E12FF"/>
<g id="Group 2">
<path id="Vector 5" d="M89.5 26.5L71.5 37L83.1533 88.5M34.5 58.5L87 105.5L83.1533 88.5M34.5 58.5L17.5 68.5L87 129M34.5 58.5H49.5L83.1533 88.5" stroke="#AA82FF"/>
<path id="Vector 6" d="M90.5 28L92 35L97 30.75L103.5 28H90.5Z" fill="#5E12FF" stroke="#5E12FF"/>
<path id="Vector 2" d="M89 27L105 27" stroke="#AA82FF"/>
<path id="Vector 3" d="M86.5 129H101.5" stroke="#AA82FF"/>
<path id="Vector 4" d="M107.5 116.5H122M107.5 116.5L86.5 129M107.5 116.5L89.5 27M122 116.5L113.5 71.75L105 27M122 116.5L111.5 122.75L101 129" stroke="#AA82FF"/>
<path id="Vector 8" d="M41 63L48.5 59.5H36.5L41 63Z" fill="#5E12FF" stroke="#5E12FF"/>
<path id="Vector 7" d="M90 128L96 124.5L100 128H90Z" fill="#5E12FF" stroke="#5E12FF"/>
</g>
</g>
<g id="P">
<path id="Vector 11" d="M140 83L146.5 58V57.5L165 61.5L159.5 87.5L140 83Z" fill="#3800AF" stroke="#AA82FF"/>
<path id="P_2" d="M114.574 117.312L139.571 33.6963L172.56 43.5585C178.902 45.4545 183.943 48.2809 187.683 52.0379C191.431 55.7676 193.836 60.1191 194.899 65.0922C195.998 70.0463 195.717 75.2996 194.057 80.8523C192.397 86.4049 189.735 90.9463 186.07 94.4763C182.406 98.0064 177.947 100.276 172.693 101.285C167.467 102.302 161.642 101.851 155.218 99.9305L134.192 93.6445L138.427 79.4771L156.596 84.9087C159.998 85.9258 162.977 86.1787 165.531 85.6674C168.121 85.1371 170.274 83.9867 171.989 82.2163C173.74 80.4269 175.026 78.1576 175.848 75.4085C176.678 72.6322 176.844 70.0429 176.347 67.6407C175.885 65.2193 174.708 63.1034 172.818 61.293C170.936 59.4554 168.28 58.0239 164.851 56.9986L152.929 53.4345L132.252 122.598L114.574 117.312Z" fill="#5E12FF"/>
<path id="P_3" d="M98.5738 119.312L123.571 35.6963L156.56 45.5585C162.902 47.4545 167.943 50.2809 171.683 54.0379C175.431 57.7676 177.836 62.1191 178.899 67.0922C179.998 72.0463 179.717 77.2996 178.057 82.8523C176.397 88.4049 173.735 92.9463 170.07 96.4763C166.406 100.006 161.947 102.276 156.693 103.285C151.467 104.302 145.642 103.851 139.218 101.93L118.192 95.6445L122.427 81.4771L140.596 86.9087C143.998 87.9258 146.977 88.1787 149.531 87.6674C152.121 87.1371 154.274 85.9867 155.989 84.2163C157.74 82.4269 159.026 80.1576 159.848 77.4085C160.678 74.6322 160.844 72.0429 160.347 69.6407C159.885 67.2193 158.708 65.1034 156.818 63.293C154.936 61.4554 152.28 60.0239 148.851 58.9986L136.929 55.4345L116.252 124.598L98.5738 119.312Z" fill="#5E12FF"/>
<g id="Group 4">
<g id="Vector 13">
<path d="M139 34.5L125.5 36.5L137.5 40L139 34.5Z" fill="#5E12FF"/>
<path d="M130.5 122L117.5 118.5L116.5 124L130.5 122Z" fill="#5E12FF"/>
<path d="M139 34.5L125.5 36.5L137.5 40L139 34.5Z" stroke="#5E12FF"/>
<path d="M130.5 122L117.5 118.5L116.5 124L130.5 122Z" stroke="#5E12FF"/>
</g>
<path id="Vector 9" d="M140 34L123.5 36L99 119M140 34L114.5 117.5M140 34L176 45L178.5 46L184.5 49.5L189.5 54L193 60L195 66L195.5 71L195 76L194 81L192 85.5L188.5 91.5L183 97L177 100.5L170 101.5H164L158 100.5L140.5 95.5L140 96L132.5 122M114.5 117.5L99 119M114.5 117.5L132.5 122M99 119L116 124.5L132.5 122" stroke="#AA82FF"/>
<path id="Vector 10" d="M144.5 81.5L153 53.5L165 57L170.5 59.5L173.5 62L175.5 65L176.5 68.5L177 72L176 75.5L174.5 78.5L173 81.5L170.5 83.5L167 85.5L163 86L159 85.5L144.5 81.5Z" stroke="#AA82FF"/>
<path id="Vector 12" d="M138.5 102L141 103L146.5 104H150.5L154.5 103.5L157.5 103L159.5 102.5L161 102L163 101" stroke="#AA82FF"/>
</g>
</g>
</g>
</svg>
